# xmcd CD database file
#
# Track frame offsets:
#	150
#	31298
#	56368
#	90021
#	118729
#	154501
#	174129
#	199943
#
# Disc length: 3057 seconds
#
# Revision: 0
# Processed by: cddbd v1.5.2PL0 Copyright (c) Steve Scherf et al.
# Submitted via: CDex 1.51
#
DISCID=520bef08
DTITLE=Grant Stewart - Shadow Of Your Smile
DYEAR=2007
DGENRE=Jazz
TTITLE0=This Could Be The Start Of Something
TTITLE1=The Fabio Complex
TTITLE2=Shadow Of Your Smile
TTITLE3=Kawa Power
TTITLE4=You And The Night And The Music
TTITLE5=Danny Boy
TTITLE6=I Won't Dance
TTITLE7=Autumn Leaves
EXTD=YEAR: 2007
EXTT0=
EXTT1=
EXTT2=
EXTT3=
EXTT4=
EXTT5=
EXTT6=
EXTT7=
PLAYORDER=
